<svg xmlns="http://www.w3.org/2000/svg" xmlns:xlink="http://www.w3.org/1999/xlink" width="1920" zoomAndPan="magnify" viewBox="0 0 1440 809.999993" height="1080" preserveAspectRatio="xMidYMid meet" version="1.0"><defs><clipPath id="c724fef0e6"><path d="M 747 52 L 1000 52 L 1000 343 L 747 343 Z M 747 52 " clip-rule="nonzero"/></clipPath><clipPath id="a5338780af"><path d="M 869.554688 -17.644531 L 1122.324219 122.121094 L 1000.203125 342.96875 L 747.4375 203.199219 Z M 869.554688 -17.644531 " clip-rule="nonzero"/></clipPath><clipPath id="27b2ff9544"><path d="M 995.753906 52.136719 L 999.832031 342.765625 L 747.4375 203.199219 Z M 995.753906 52.136719 " clip-rule="nonzero"/></clipPath><clipPath id="53e1f1c09b"><path d="M 0.359375 0.078125 L 252.839844 0.078125 L 252.839844 290.960938 L 0.359375 290.960938 Z M 0.359375 0.078125 " clip-rule="nonzero"/></clipPath><clipPath id="a550652169"><path d="M 122.554688 -69.644531 L 375.324219 70.121094 L 253.203125 290.96875 L 0.4375 151.199219 Z M 122.554688 -69.644531 " clip-rule="nonzero"/></clipPath><clipPath id="8536101fe5"><path d="M 248.753906 0.136719 L 252.832031 290.765625 L 0.4375 151.199219 Z M 248.753906 0.136719 " clip-rule="nonzero"/></clipPath><clipPath id="aee83356a6"><rect x="0" width="253" y="0" height="291"/></clipPath><clipPath id="a2ed1499e1"><path d="M 610 307 L 994 307 L 994 581 L 610 581 Z M 610 307 " clip-rule="nonzero"/></clipPath><clipPath id="3eebe3892b"><path d="M 610.179688 432.539062 L 935.953125 307.007812 L 993.117188 455.363281 L 667.34375 580.894531 Z M 610.179688 432.539062 " clip-rule="nonzero"/></clipPath><clipPath id="be5fd8a1d6"><path d="M 0.078125 0 L 383.121094 0 L 383.121094 274 L 0.078125 274 Z M 0.078125 0 " clip-rule="nonzero"/></clipPath><clipPath id="c7cd1fddc8"><path d="M 0.179688 125.539062 L 325.953125 0.0078125 L 383.117188 148.363281 L 57.34375 273.894531 Z M 0.179688 125.539062 " clip-rule="nonzero"/></clipPath><clipPath id="b60da82a69"><rect x="0" width="384" y="0" height="274"/></clipPath><clipPath id="2d71e503a8"><path d="M 448 52 L 702 52 L 702 343 L 448 343 Z M 448 52 " clip-rule="nonzero"/></clipPath><clipPath id="8e51e085a7"><path d="M 324.351562 125.761719 L 572.714844 -21.6875 L 701.542969 195.3125 L 453.179688 342.765625 Z M 324.351562 125.761719 " clip-rule="nonzero"/></clipPath><clipPath id="f450e9ef5e"><path d="M 448.351562 52.144531 L 701.179688 195.53125 L 453.179688 342.765625 Z M 448.351562 52.144531 " clip-rule="nonzero"/></clipPath><clipPath id="f95baa85e8"><path d="M 0.320312 0.078125 L 253.28125 0.078125 L 253.28125 290.960938 L 0.320312 290.960938 Z M 0.320312 0.078125 " clip-rule="nonzero"/></clipPath><clipPath id="d11c920580"><path d="M -123.648438 73.761719 L 124.714844 -73.6875 L 253.542969 143.3125 L 5.179688 290.765625 Z M -123.648438 73.761719 " clip-rule="nonzero"/></clipPath><clipPath id="91c0727e53"><path d="M 0.351562 0.144531 L 253.179688 143.53125 L 5.179688 290.765625 Z M 0.351562 0.144531 " clip-rule="nonzero"/></clipPath><clipPath id="4676311f57"><rect x="0" width="254" y="0" height="291"/></clipPath><clipPath id="4ccd46f58e"><path d="M 357.671875 210.320312 L 1081 210.320312 L 1081 726.875 L 357.671875 726.875 Z M 357.671875 210.320312 " clip-rule="nonzero"/></clipPath><clipPath id="17bc5e2f5e"><path d="M 719.179688 210.320312 L 1080.6875 468.597656 L 719.179688 726.875 L 357.671875 468.597656 Z M 719.179688 210.320312 " clip-rule="nonzero"/></clipPath><clipPath id="25fa08fa14"><path d="M 0.671875 0.320312 L 723.71875 0.320312 L 723.71875 516.875 L 0.671875 516.875 Z M 0.671875 0.320312 " clip-rule="nonzero"/></clipPath><clipPath id="e626b21822"><path d="M 362.179688 0.320312 L 723.6875 258.597656 L 362.179688 516.875 L 0.671875 258.597656 Z M 362.179688 0.320312 " clip-rule="nonzero"/></clipPath><clipPath id="bfb81036a2"><rect x="0" width="724" y="0" height="517"/></clipPath><clipPath id="f97a05515a"><path d="M 428 40 L 818 40 L 818 484 L 428 484 Z M 428 40 " clip-rule="nonzero"/></clipPath><clipPath id="e81d6206fa"><path d="M 248.78125 148.640625 L 635.378906 -64.558594 L 823.453125 276.476562 L 436.855469 489.675781 Z M 248.78125 148.640625 " clip-rule="nonzero"/></clipPath><clipPath id="571c409b00"><path d="M 457.390625 42.675781 L 810.753906 258.195312 C 815.257812 260.941406 817.960938 265.878906 817.84375 271.152344 C 817.730469 276.425781 814.816406 281.242188 810.195312 283.789062 L 450.898438 481.929688 C 446.28125 484.480469 440.652344 484.375 436.132812 481.660156 C 431.609375 478.941406 428.875 474.023438 428.957031 468.75 L 435.234375 54.894531 C 435.316406 49.667969 438.1875 44.882812 442.769531 42.355469 C 447.347656 39.832031 452.929688 39.953125 457.390625 42.675781 Z M 457.390625 42.675781 " clip-rule="nonzero"/></clipPath><clipPath id="3aa184e644"><path d="M 0.640625 0 L 390 0 L 390 444 L 0.640625 444 Z M 0.640625 0 " clip-rule="nonzero"/></clipPath><clipPath id="3680efbad7"><path d="M -179.21875 108.640625 L 207.378906 -104.558594 L 395.453125 236.476562 L 8.855469 449.675781 Z M -179.21875 108.640625 " clip-rule="nonzero"/></clipPath><clipPath id="3526eefa1d"><path d="M 29.390625 2.675781 L 382.753906 218.195312 C 387.257812 220.941406 389.960938 225.878906 389.84375 231.152344 C 389.730469 236.425781 386.816406 241.242188 382.195312 243.789062 L 22.898438 441.929688 C 18.28125 444.480469 12.652344 444.375 8.132812 441.660156 C 3.609375 438.941406 0.875 434.023438 0.957031 428.75 L 7.234375 14.894531 C 7.316406 9.667969 10.1875 4.882812 14.769531 2.355469 C 19.347656 -0.167969 24.929688 -0.046875 29.390625 2.675781 Z M 29.390625 2.675781 " clip-rule="nonzero"/></clipPath><clipPath id="d968a30836"><rect x="0" width="390" y="0" height="444"/></clipPath><clipPath id="c30377d59d"><path d="M 629 41 L 1018 41 L 1018 479 L 629 479 Z M 629 41 " clip-rule="nonzero"/></clipPath><clipPath id="991a67b7ca"><path d="M 802.769531 -59.757812 L 1188.664062 143.59375 L 1009.277344 484.007812 L 623.386719 280.652344 Z M 802.769531 -59.757812 " clip-rule="nonzero"/></clipPath><clipPath id="5ab39a6e7e"><path d="M 1003.519531 55.207031 L 1017.464844 463.292969 C 1017.644531 468.566406 1015.003906 473.535156 1010.535156 476.335938 C 1006.0625 479.140625 1000.441406 479.351562 995.773438 476.890625 L 637.675781 288.183594 C 633.007812 285.726562 630.003906 280.96875 629.789062 275.695312 C 629.574219 270.425781 632.179688 265.441406 636.628906 262.609375 L 981.132812 43.410156 C 985.542969 40.605469 991.121094 40.375 995.746094 42.8125 C 1000.375 45.25 1003.339844 49.980469 1003.519531 55.207031 Z M 1003.519531 55.207031 " clip-rule="nonzero"/></clipPath><clipPath id="408c529fcf"><path d="M 0.519531 0 L 388.839844 0 L 388.839844 438 L 0.519531 438 Z M 0.519531 0 " clip-rule="nonzero"/></clipPath><clipPath id="f36cda2d88"><path d="M 173.769531 -100.757812 L 559.664062 102.59375 L 380.277344 443.007812 L -5.613281 239.652344 Z M 173.769531 -100.757812 " clip-rule="nonzero"/></clipPath><clipPath id="7eee2075ce"><path d="M 374.519531 14.207031 L 388.464844 422.292969 C 388.644531 427.566406 386.003906 432.535156 381.535156 435.335938 C 377.0625 438.140625 371.441406 438.351562 366.773438 435.890625 L 8.675781 247.183594 C 4.007812 244.726562 1.003906 239.96875 0.789062 234.695312 C 0.574219 229.425781 3.179688 224.441406 7.628906 221.609375 L 352.132812 2.410156 C 356.542969 -0.394531 362.121094 -0.625 366.746094 1.8125 C 371.375 4.25 374.339844 8.980469 374.519531 14.207031 Z M 374.519531 14.207031 " clip-rule="nonzero"/></clipPath><clipPath id="f3a3ea4352"><rect x="0" width="389" y="0" height="438"/></clipPath><clipPath id="85d95d7298"><path d="M 355 177 L 671 177 L 671 469 L 355 469 Z M 355 177 " clip-rule="nonzero"/></clipPath><clipPath id="29befb8dee"><path d="M 326.59375 193.789062 L 641.117188 160.203125 L 670.460938 435.011719 L 355.9375 468.597656 Z M 326.59375 193.789062 " clip-rule="nonzero"/></clipPath><clipPath id="e14e7b342c"><path d="M 483.625 177.019531 L 670.003906 435.058594 L 355.9375 468.597656 Z M 483.625 177.019531 " clip-rule="nonzero"/></clipPath><clipPath id="47e78996e1"><path d="M 0.921875 0 L 315.078125 0 L 315.078125 291.71875 L 0.921875 291.71875 Z M 0.921875 0 " clip-rule="nonzero"/></clipPath><clipPath id="da8ed95e38"><path d="M -28.40625 16.789062 L 286.117188 -16.796875 L 315.460938 258.011719 L 0.9375 291.597656 Z M -28.40625 16.789062 " clip-rule="nonzero"/></clipPath><clipPath id="6e3f9275b7"><path d="M 128.625 0.0195312 L 315.003906 258.058594 L 0.9375 291.597656 Z M 128.625 0.0195312 " clip-rule="nonzero"/></clipPath><clipPath id="e948578b62"><rect x="0" width="316" y="0" height="292"/></clipPath><clipPath id="9cdb69db71"><path d="M 767 177 L 1081 177 L 1081 471 L 767 471 Z M 767 177 " clip-rule="nonzero"/></clipPath><clipPath id="67157b6c7c"><path d="M 800.253906 158.304688 L 1114.285156 196.226562 L 1081.152344 470.601562 L 767.121094 432.679688 Z M 800.253906 158.304688 " clip-rule="nonzero"/></clipPath><clipPath id="03747ce7c8"><path d="M 957.039062 177.238281 L 1080.695312 470.546875 L 767.121094 432.679688 Z M 957.039062 177.238281 " clip-rule="nonzero"/></clipPath><clipPath id="f10375387d"><path d="M 0.0390625 0.121094 L 313.71875 0.121094 L 313.71875 293.640625 L 0.0390625 293.640625 Z M 0.0390625 0.121094 " clip-rule="nonzero"/></clipPath><clipPath id="fda85b917f"><path d="M 33.253906 -18.695312 L 347.285156 19.226562 L 314.152344 293.601562 L 0.121094 255.679688 Z M 33.253906 -18.695312 " clip-rule="nonzero"/></clipPath><clipPath id="17c08c61d9"><path d="M 190.039062 0.238281 L 313.695312 293.546875 L 0.121094 255.679688 Z M 190.039062 0.238281 " clip-rule="nonzero"/></clipPath><clipPath id="1352d05296"><rect x="0" width="314" y="0" height="294"/></clipPath><clipPath id="6b2e442dac"><path d="M 517.355469 150.113281 L 921.003906 150.113281 L 921.003906 260.199219 L 517.355469 260.199219 Z M 517.355469 150.113281 " clip-rule="nonzero"/></clipPath><clipPath id="e1a3fdb2ca"><path d="M 0.355469 0.113281 L 404.003906 0.113281 L 404.003906 110.199219 L 0.355469 110.199219 Z M 0.355469 0.113281 " clip-rule="nonzero"/></clipPath><clipPath id="a3cb9a7acc"><rect x="0" width="405" y="0" height="111"/></clipPath><clipPath id="0a5febf964"><path d="M 902 395 L 955 395 L 955 447 L 902 447 Z M 902 395 " clip-rule="nonzero"/></clipPath><clipPath id="23cd9336b9"><path d="M 956.933594 398.007812 L 951.78125 449.511719 L 900.273438 444.359375 L 905.429688 392.851562 Z M 956.933594 398.007812 " clip-rule="nonzero"/></clipPath><clipPath id="a5e76a67e6"><path d="M 954.355469 423.757812 L 926.027344 446.9375 L 902.851562 418.605469 L 931.179688 395.429688 Z M 954.355469 423.757812 " clip-rule="nonzero"/></clipPath><clipPath id="e0549c4b1a"><path d="M 0.640625 0.28125 L 52.480469 0.28125 L 52.480469 52 L 0.640625 52 Z M 0.640625 0.28125 " clip-rule="nonzero"/></clipPath><clipPath id="9edf01624f"><path d="M 54.933594 3.007812 L 49.78125 54.511719 L -1.726562 49.359375 L 3.429688 -2.148438 Z M 54.933594 3.007812 " clip-rule="nonzero"/></clipPath><clipPath id="ab7edb1bfe"><path d="M 52.355469 28.757812 L 24.027344 51.9375 L 0.851562 23.605469 L 29.179688 0.429688 Z M 52.355469 28.757812 " clip-rule="nonzero"/></clipPath><clipPath id="30a4937207"><rect x="0" width="53" y="0" height="52"/></clipPath><clipPath id="a9acca1c73"><path d="M 883 370 L 934 370 L 934 420 L 883 420 Z M 883 370 " clip-rule="nonzero"/></clipPath><clipPath id="93a51d96a0"><path d="M 935.515625 373.050781 L 930.675781 422.234375 L 881.492188 417.394531 L 886.332031 368.210938 Z M 935.515625 373.050781 " clip-rule="nonzero"/></clipPath><clipPath id="695818bf55"><path d="M 933.09375 397.640625 L 906.082031 419.816406 L 883.910156 392.804688 L 910.921875 370.632812 Z M 933.09375 397.640625 " clip-rule="nonzero"/></clipPath><clipPath id="a396656796"><path d="M 0.679688 0.558594 L 50.121094 0.558594 L 50.121094 50 L 0.679688 50 Z M 0.679688 0.558594 " clip-rule="nonzero"/></clipPath><clipPath id="e4cb93e822"><path d="M 52.515625 3.050781 L 47.675781 52.234375 L -1.507812 47.394531 L 3.332031 -1.789062 Z M 52.515625 3.050781 " clip-rule="nonzero"/></clipPath><clipPath id="5ea7f50ba3"><path d="M 50.09375 27.640625 L 23.082031 49.816406 L 0.910156 22.804688 L 27.921875 0.632812 Z M 50.09375 27.640625 " clip-rule="nonzero"/></clipPath><clipPath id="17a7a5fbea"><rect x="0" width="51" y="0" height="50"/></clipPath><clipPath id="0c5056e49f"><path d="M 864 347 L 914 347 L 914 397 L 864 397 Z M 864 347 " clip-rule="nonzero"/></clipPath><clipPath id="070ba9c68f"><path d="M 916.6875 350.070312 L 911.039062 399.167969 L 861.941406 393.519531 L 867.589844 344.421875 Z M 916.6875 350.070312 " clip-rule="nonzero"/></clipPath><clipPath id="60c8693830"><path d="M 913.863281 374.617188 L 886.492188 396.34375 L 864.765625 368.96875 L 892.140625 347.246094 Z M 913.863281 374.617188 " clip-rule="nonzero"/></clipPath><clipPath id="f49a4bf3bf"><path d="M 0.71875 0.0390625 L 49.921875 0.0390625 L 49.921875 49.480469 L 0.71875 49.480469 Z M 0.71875 0.0390625 " clip-rule="nonzero"/></clipPath><clipPath id="f6b1bb38e7"><path d="M 52.6875 3.070312 L 47.039062 52.167969 L -2.058594 46.519531 L 3.589844 -2.578125 Z M 52.6875 3.070312 " clip-rule="nonzero"/></clipPath><clipPath id="01bd44c7b1"><path d="M 49.863281 27.617188 L 22.492188 49.34375 L 0.765625 21.96875 L 28.140625 0.246094 Z M 49.863281 27.617188 " clip-rule="nonzero"/></clipPath><clipPath id="f94bfca962"><rect x="0" width="50" y="0" height="50"/></clipPath><clipPath id="8e6018af82"><path d="M 793 395 L 844 395 L 844 448 L 793 448 Z M 793 395 " clip-rule="nonzero"/></clipPath><clipPath id="0a7d8d5034"><path d="M 841.875 393.929688 L 845.835938 445.257812 L 795.492188 449.140625 L 791.53125 397.8125 Z M 841.875 393.929688 " clip-rule="nonzero"/></clipPath><clipPath id="8322e874e8"><path d="M 843.851562 419.550781 L 820.65625 447.117188 L 793.507812 423.4375 L 816.703125 395.871094 Z M 843.851562 419.550781 " clip-rule="nonzero"/></clipPath><clipPath id="4b8a757b14"><path d="M 0.441406 0.761719 L 51 0.761719 L 51 52.121094 L 0.441406 52.121094 Z M 0.441406 0.761719 " clip-rule="nonzero"/></clipPath><clipPath id="bf69ebd8e7"><path d="M 48.875 -1.070312 L 52.835938 50.257812 L 2.492188 54.140625 L -1.46875 2.8125 Z M 48.875 -1.070312 " clip-rule="nonzero"/></clipPath><clipPath id="27598ea37e"><path d="M 50.851562 24.550781 L 27.65625 52.117188 L 0.507812 28.4375 L 23.703125 0.871094 Z M 50.851562 24.550781 " clip-rule="nonzero"/></clipPath><clipPath id="38384ef4f3"><rect x="0" width="51" y="0" height="53"/></clipPath><clipPath id="69779a5599"><path d="M 816 367 L 867 367 L 867 421 L 816 421 Z M 816 367 " clip-rule="nonzero"/></clipPath><clipPath id="7ac7ffbb75"><path d="M 864.574219 365.613281 L 868.648438 418.425781 L 818.199219 422.320312 L 814.125 369.503906 Z M 864.574219 365.613281 " clip-rule="nonzero"/></clipPath><clipPath id="4b7ab1ecbe"><path d="M 866.609375 391.980469 L 843.417969 420.296875 L 816.160156 395.875 L 839.351562 367.558594 Z M 866.609375 391.980469 " clip-rule="nonzero"/></clipPath><clipPath id="d3809c01d7"><path d="M 0 0.441406 L 50.640625 0.441406 L 50.640625 53.480469 L 0 53.480469 Z M 0 0.441406 " clip-rule="nonzero"/></clipPath><clipPath id="93d5adaabe"><path d="M 48.574219 -1.386719 L 52.648438 51.425781 L 2.199219 55.320312 L -1.875 2.503906 Z M 48.574219 -1.386719 " clip-rule="nonzero"/></clipPath><clipPath id="234cb7e70a"><path d="M 50.609375 24.980469 L 27.417969 53.296875 L 0.160156 28.875 L 23.351562 0.558594 Z M 50.609375 24.980469 " clip-rule="nonzero"/></clipPath><clipPath id="104a8a8ce7"><rect x="0" width="51" y="0" height="54"/></clipPath><clipPath id="f3947314ca"><path d="M 839 338 L 890 338 L 890 392 L 839 392 Z M 839 338 " clip-rule="nonzero"/></clipPath><clipPath id="63cc10baed"><path d="M 887.644531 336.140625 L 891.808594 390.136719 L 841.359375 394.03125 L 837.195312 340.035156 Z M 887.644531 336.140625 " clip-rule="nonzero"/></clipPath><clipPath id="6cda6509a6"><path d="M 889.722656 363.089844 L 866.574219 391.984375 L 839.273438 366.980469 L 862.417969 338.085938 Z M 889.722656 363.089844 " clip-rule="nonzero"/></clipPath><clipPath id="8ee7d73f16"><path d="M 0.0390625 0 L 50.921875 0 L 50.921875 54 L 0.0390625 54 Z M 0.0390625 0 " clip-rule="nonzero"/></clipPath><clipPath id="b79442b4b1"><path d="M 48.644531 -1.859375 L 52.808594 52.136719 L 2.359375 56.03125 L -1.804688 2.035156 Z M 48.644531 -1.859375 " clip-rule="nonzero"/></clipPath><clipPath id="803629c652"><path d="M 50.722656 25.089844 L 27.574219 53.984375 L 0.273438 28.980469 L 23.417969 0.0859375 Z M 50.722656 25.089844 " clip-rule="nonzero"/></clipPath><clipPath id="cefed1c28e"><rect x="0" width="51" y="0" height="54"/></clipPath><clipPath id="b09e96c9f1"><path d="M 861 337 L 893 337 L 893 365 L 861 365 Z M 861 337 " clip-rule="nonzero"/></clipPath><clipPath id="3319f16e10"><path d="M 903.289062 350.523438 L 881.59375 376.886719 L 850.59375 351.378906 L 872.289062 325.015625 Z M 903.289062 350.523438 " clip-rule="nonzero"/></clipPath><clipPath id="74cf928d6e"><path d="M 892.441406 363.707031 L 866.105469 364.144531 L 861.46875 338.21875 L 887.800781 337.78125 Z M 892.441406 363.707031 " clip-rule="nonzero"/></clipPath><clipPath id="ab1916ce90"><path d="M 0.359375 0.679688 L 31.558594 0.679688 L 31.558594 27.320312 L 0.359375 27.320312 Z M 0.359375 0.679688 " clip-rule="nonzero"/></clipPath><clipPath id="a7b2c1963c"><path d="M 42.289062 13.523438 L 20.59375 39.886719 L -10.40625 14.378906 L 11.289062 -11.984375 Z M 42.289062 13.523438 " clip-rule="nonzero"/></clipPath><clipPath id="7e6028a5d8"><path d="M 31.441406 26.707031 L 5.105469 27.144531 L 0.46875 1.21875 L 26.800781 0.78125 Z M 31.441406 26.707031 " clip-rule="nonzero"/></clipPath><clipPath id="16b2b6c421"><rect x="0" width="32" y="0" height="28"/></clipPath><clipPath id="3848eb7a61"><path d="M 868 337 L 903 337 L 903 378 L 868 378 Z M 868 337 " clip-rule="nonzero"/></clipPath><clipPath id="0798ddc09a"><path d="M 900.742188 379.339844 L 866.792969 375.738281 L 871.027344 335.816406 L 904.980469 339.417969 Z M 900.742188 379.339844 " clip-rule="nonzero"/></clipPath><clipPath id="bae141a4bb"><path d="M 883.765625 377.539062 L 868.90625 355.792969 L 888 337.652344 L 902.859375 359.394531 Z M 883.765625 377.539062 " clip-rule="nonzero"/></clipPath><clipPath id="821eebdfe6"><path d="M 0.800781 0.441406 L 34.878906 0.441406 L 34.878906 40.761719 L 0.800781 40.761719 Z M 0.800781 0.441406 " clip-rule="nonzero"/></clipPath><clipPath id="b53c513900"><path d="M 32.742188 42.339844 L -1.207031 38.738281 L 3.027344 -1.183594 L 36.980469 2.417969 Z M 32.742188 42.339844 " clip-rule="nonzero"/></clipPath><clipPath id="7449cf9951"><path d="M 15.765625 40.539062 L 0.90625 18.792969 L 20 0.652344 L 34.859375 22.394531 Z M 15.765625 40.539062 " clip-rule="nonzero"/></clipPath><clipPath id="56ef67eae4"><rect x="0" width="35" y="0" height="41"/></clipPath><clipPath id="6a74bbf270"><path d="M 826 355 L 876 355 L 876 408 L 826 408 Z M 826 355 " clip-rule="nonzero"/></clipPath><clipPath id="08ad5ec468"><path d="M 873.25 352.964844 L 878.433594 404.921875 L 828.800781 409.875 L 823.617188 357.917969 Z M 873.25 352.964844 " clip-rule="nonzero"/></clipPath><clipPath id="7ae0b9a99e"><path d="M 875.835938 378.90625 L 853.609375 407.324219 L 826.207031 383.859375 L 848.433594 355.441406 Z M 875.835938 378.90625 " clip-rule="nonzero"/></clipPath><clipPath id="4eff2ae4ca"><path d="M 0.078125 0.441406 L 50 0.441406 L 50 52.519531 L 0.078125 52.519531 Z M 0.078125 0.441406 " clip-rule="nonzero"/></clipPath><clipPath id="96d2c2acec"><path d="M 47.25 -2.035156 L 52.433594 49.921875 L 2.800781 54.875 L -2.382812 2.917969 Z M 47.25 -2.035156 " clip-rule="nonzero"/></clipPath><clipPath id="f40a02c587"><path d="M 49.835938 23.90625 L 27.609375 52.324219 L 0.207031 28.859375 L 22.433594 0.441406 Z M 49.835938 23.90625 " clip-rule="nonzero"/></clipPath><clipPath id="07026b90f8"><rect x="0" width="50" y="0" height="53"/></clipPath><clipPath id="f77f45a8eb"><path d="M 882 370 L 935 370 L 935 423 L 882 423 Z M 882 370 " clip-rule="nonzero"/></clipPath><clipPath id="0bd98252f7"><path d="M 936.835938 373.363281 L 931.679688 424.871094 L 880.175781 419.714844 L 885.328125 368.210938 Z M 936.835938 373.363281 " clip-rule="nonzero"/></clipPath><clipPath id="ba7ed56c91"><path d="M 934.257812 399.117188 L 905.929688 422.292969 L 882.753906 393.964844 L 911.082031 370.789062 Z M 934.257812 399.117188 " clip-rule="nonzero"/></clipPath><clipPath id="5c101d0de1"><path d="M 0.71875 0.558594 L 52.320312 0.558594 L 52.320312 52.398438 L 0.71875 52.398438 Z M 0.71875 0.558594 " clip-rule="nonzero"/></clipPath><clipPath id="28e89dfff7"><path d="M 54.835938 3.363281 L 49.679688 54.871094 L -1.824219 49.714844 L 3.328125 -1.789062 Z M 54.835938 3.363281 " clip-rule="nonzero"/></clipPath><clipPath id="569095b9fc"><path d="M 52.257812 29.117188 L 23.929688 52.292969 L 0.753906 23.964844 L 29.082031 0.789062 Z M 52.257812 29.117188 " clip-rule="nonzero"/></clipPath><clipPath id="b3176b39e8"><rect x="0" width="53" y="0" height="53"/></clipPath><clipPath id="3f61a3efdf"><path d="M 873 359 L 925 359 L 925 411 L 873 411 Z M 873 359 " clip-rule="nonzero"/></clipPath><clipPath id="9af9d83020"><path d="M 927.808594 362.144531 L 921.535156 413.527344 L 870.15625 407.253906 L 876.425781 355.875 Z M 927.808594 362.144531 " clip-rule="nonzero"/></clipPath><clipPath id="c24b607c48"><path d="M 924.671875 387.835938 L 895.84375 410.390625 L 873.289062 381.5625 L 902.117188 359.007812 Z M 924.671875 387.835938 " clip-rule="nonzero"/></clipPath><clipPath id="19d7d76041"><path d="M 0.121094 0 L 51.71875 0 L 51.71875 51.398438 L 0.121094 51.398438 Z M 0.121094 0 " clip-rule="nonzero"/></clipPath><clipPath id="7f99f8f519"><path d="M 54.808594 3.144531 L 48.535156 54.527344 L -2.84375 48.253906 L 3.425781 -3.125 Z M 54.808594 3.144531 " clip-rule="nonzero"/></clipPath><clipPath id="294500db5a"><path d="M 51.671875 28.835938 L 22.84375 51.390625 L 0.289062 22.5625 L 29.117188 0.0078125 Z M 51.671875 28.835938 " clip-rule="nonzero"/></clipPath><clipPath id="688f5ba7c9"><rect x="0" width="52" y="0" height="52"/></clipPath><clipPath id="7a7dcad4c6"><path d="M 665.722656 470.546875 L 773 470.546875 L 773 499.984375 L 665.722656 499.984375 Z M 665.722656 470.546875 " clip-rule="nonzero"/></clipPath><clipPath id="879ae4a83d"><path d="M 676.972656 470.546875 L 761.6875 470.546875 C 764.667969 470.546875 767.53125 471.730469 769.640625 473.839844 C 771.75 475.949219 772.9375 478.8125 772.9375 481.796875 L 772.9375 488.734375 C 772.9375 491.71875 771.75 494.578125 769.640625 496.6875 C 767.53125 498.800781 764.667969 499.984375 761.6875 499.984375 L 676.972656 499.984375 C 673.988281 499.984375 671.128906 498.800781 669.019531 496.6875 C 666.910156 494.578125 665.722656 491.71875 665.722656 488.734375 L 665.722656 481.796875 C 665.722656 478.8125 666.910156 475.949219 669.019531 473.839844 C 671.128906 471.730469 673.988281 470.546875 676.972656 470.546875 Z M 676.972656 470.546875 " clip-rule="nonzero"/></clipPath><clipPath id="416b2e576b"><path d="M 0.722656 0.546875 L 108 0.546875 L 108 29.984375 L 0.722656 29.984375 Z M 0.722656 0.546875 " clip-rule="nonzero"/></clipPath><clipPath id="65168a15d0"><path d="M 11.972656 0.546875 L 96.6875 0.546875 C 99.667969 0.546875 102.53125 1.730469 104.640625 3.839844 C 106.75 5.949219 107.9375 8.8125 107.9375 11.796875 L 107.9375 18.734375 C 107.9375 21.71875 106.75 24.578125 104.640625 26.6875 C 102.53125 28.800781 99.667969 29.984375 96.6875 29.984375 L 11.972656 29.984375 C 8.988281 29.984375 6.128906 28.800781 4.019531 26.6875 C 1.910156 24.578125 0.722656 21.71875 0.722656 18.734375 L 0.722656 11.796875 C 0.722656 8.8125 1.910156 5.949219 4.019531 3.839844 C 6.128906 1.730469 8.988281 0.546875 11.972656 0.546875 Z M 11.972656 0.546875 " clip-rule="nonzero"/></clipPath><clipPath id="b0ecad4182"><rect x="0" width="108" y="0" height="30"/></clipPath><clipPath id="de0ae93db3"><path d="M 701.136719 497.054688 L 737.066406 497.054688 L 737.066406 534.566406 L 701.136719 534.566406 Z M 701.136719 497.054688 " clip-rule="nonzero"/></clipPath><clipPath id="31ba1cfabc"><path d="M 719.105469 497.066406 L 701.167969 524.773438 L 709.460938 534.554688 L 728.75 534.554688 L 737.046875 524.773438 Z M 719.105469 497.066406 " clip-rule="nonzero"/></clipPath><clipPath id="1529b10ae8"><path d="M 0.136719 0.0546875 L 36.066406 0.0546875 L 36.066406 37.566406 L 0.136719 37.566406 Z M 0.136719 0.0546875 " clip-rule="nonzero"/></clipPath><clipPath id="d1a95cb7cf"><path d="M 18.105469 0.0664062 L 0.167969 27.773438 L 8.460938 37.554688 L 27.75 37.554688 L 36.046875 27.773438 Z M 18.105469 0.0664062 " clip-rule="nonzero"/></clipPath><clipPath id="a4637d5ee2"><rect x="0" width="37" y="0" height="38"/></clipPath><clipPath id="b578db9982"><path d="M 716 484 L 767 484 L 767 534 L 716 534 Z M 716 484 " clip-rule="nonzero"/></clipPath><clipPath id="b2650c7a72"><path d="M 760.941406 474.304688 L 772.347656 523.390625 L 727.46875 533.820312 L 716.0625 484.734375 Z M 760.941406 474.304688 " clip-rule="nonzero"/></clipPath><clipPath id="3458f33b88"><path d="M 766.644531 498.84375 L 727.46875 533.816406 L 716.0625 484.734375 Z M 766.644531 498.84375 " clip-rule="nonzero"/></clipPath><clipPath id="695cac7ffc"><path d="M 0 0.558594 L 50.800781 0.558594 L 50.800781 50 L 0 50 Z M 0 0.558594 " clip-rule="nonzero"/></clipPath><clipPath id="f7bfbaafb3"><path d="M 44.941406 -9.695312 L 56.347656 39.390625 L 11.46875 49.820312 L 0.0625 0.734375 Z M 44.941406 -9.695312 " clip-rule="nonzero"/></clipPath><clipPath id="4b2b5e7905"><path d="M 50.644531 14.84375 L 11.46875 49.816406 L 0.0625 0.734375 Z M 50.644531 14.84375 " clip-rule="nonzero"/></clipPath><clipPath id="31d5c95b29"><rect x="0" width="51" y="0" height="50"/></clipPath><clipPath id="49f0f4cde3"><path d="M 671 485 L 723 485 L 723 535 L 671 535 Z M 671 485 " clip-rule="nonzero"/></clipPath><clipPath id="19b388075a"><path d="M 665.429688 523.1875 L 677.707031 474.3125 L 722.394531 485.539062 L 710.117188 534.414062 Z M 665.429688 523.1875 " clip-rule="nonzero"/></clipPath><clipPath id="e50932c12e"><path d="M 671.566406 498.75 L 722.394531 485.542969 L 710.117188 534.414062 Z M 671.566406 498.75 " clip-rule="nonzero"/></clipPath><clipPath id="68c4817f19"><path d="M 0.519531 0.519531 L 51.398438 0.519531 L 51.398438 49.480469 L 0.519531 49.480469 Z M 0.519531 0.519531 " clip-rule="nonzero"/></clipPath><clipPath id="0a9cb85f40"><path d="M -5.570312 38.1875 L 6.707031 -10.6875 L 51.394531 0.539062 L 39.117188 49.414062 Z M -5.570312 38.1875 " clip-rule="nonzero"/></clipPath><clipPath id="cd45596759"><path d="M 0.566406 13.75 L 51.394531 0.542969 L 39.117188 49.414062 Z M 0.566406 13.75 " clip-rule="nonzero"/></clipPath><clipPath id="8a09493209"><rect x="0" width="52" y="0" height="50"/></clipPath><clipPath id="0156611632"><path d="M 451 74 L 603 74 L 603 260 L 451 260 Z M 451 74 " clip-rule="nonzero"/></clipPath><clipPath id="8de5b8e9e4"><path d="M 398.742188 112.882812 L 521.414062 41.074219 L 613.503906 198.386719 L 490.835938 270.199219 Z M 398.742188 112.882812 " clip-rule="nonzero"/></clipPath><clipPath id="1f615c9d80"><path d="M 478.953125 78.320312 L 591.59375 165.808594 C 599.046875 171.59375 603.140625 180.699219 602.523438 190.113281 C 601.90625 199.527344 596.660156 208.023438 588.519531 212.789062 L 515.625 255.460938 C 507.484375 260.226562 497.507812 260.644531 488.996094 256.574219 C 480.488281 252.5 474.550781 244.472656 473.152344 235.144531 L 452.007812 94.09375 C 450.988281 87.296875 454.210938 80.5625 460.144531 77.089844 C 466.074219 73.617188 473.523438 74.105469 478.953125 78.320312 Z M 478.953125 78.320312 " clip-rule="nonzero"/></clipPath><clipPath id="30ed5e383e"><path d="M 0 0 L 152 0 L 152 186 L 0 186 Z M 0 0 " clip-rule="nonzero"/></clipPath><clipPath id="5f1eb1ca2d"><path d="M -52.257812 38.882812 L 70.414062 -32.925781 L 162.503906 124.386719 L 39.835938 196.199219 Z M -52.257812 38.882812 " clip-rule="nonzero"/></clipPath><clipPath id="87e6719af0"><path d="M 27.953125 4.320312 L 140.59375 91.808594 C 148.046875 97.59375 152.140625 106.699219 151.523438 116.113281 C 150.90625 125.527344 145.660156 134.023438 137.519531 138.789062 L 64.625 181.460938 C 56.484375 186.226562 46.507812 186.644531 37.996094 182.574219 C 29.488281 178.5 23.550781 170.472656 22.152344 161.144531 L 1.007812 20.09375 C -0.0117188 13.296875 3.210938 6.5625 9.144531 3.089844 C 15.074219 -0.382812 22.523438 0.105469 27.953125 4.320312 Z M 27.953125 4.320312 " clip-rule="nonzero"/></clipPath><clipPath id="a5f00112ed"><rect x="0" width="152" y="0" height="186"/></clipPath><clipPath id="277ab3702e"><path d="M 833 74 L 984 74 L 984 260 L 833 260 Z M 833 74 " clip-rule="nonzero"/></clipPath><clipPath id="46adf204bb"><path d="M 914.105469 41.195312 L 1036.941406 112.726562 L 945.210938 270.25 L 822.375 198.722656 Z M 914.105469 41.195312 " clip-rule="nonzero"/></clipPath><clipPath id="6acdca1e96"><path d="M 983.636719 94.058594 L 962.824219 235.136719 C 961.449219 244.46875 955.53125 252.507812 947.03125 256.601562 C 938.53125 260.691406 928.554688 260.296875 920.402344 255.550781 L 847.410156 213.042969 C 839.257812 208.296875 833.992188 199.816406 833.351562 190.402344 C 832.714844 180.992188 836.789062 171.875 844.226562 166.070312 L 956.652344 78.347656 C 962.070312 74.117188 969.519531 73.613281 975.460938 77.070312 C 981.402344 80.53125 984.636719 87.257812 983.636719 94.058594 Z M 983.636719 94.058594 " clip-rule="nonzero"/></clipPath><clipPath id="f88101458c"><path d="M 0 0 L 151 0 L 151 186 L 0 186 Z M 0 0 " clip-rule="nonzero"/></clipPath><clipPath id="6c0bf2bcb9"><path d="M 81.105469 -32.804688 L 203.941406 38.726562 L 112.210938 196.25 L -10.625 124.722656 Z M 81.105469 -32.804688 " clip-rule="nonzero"/></clipPath><clipPath id="243d24db1a"><path d="M 150.636719 20.058594 L 129.824219 161.136719 C 128.449219 170.46875 122.53125 178.507812 114.03125 182.601562 C 105.53125 186.691406 95.554688 186.296875 87.402344 181.550781 L 14.410156 139.042969 C 6.257812 134.296875 0.992188 125.816406 0.351562 116.402344 C -0.285156 106.992188 3.789062 97.875 11.226562 92.070312 L 123.652344 4.347656 C 129.070312 0.117188 136.519531 -0.386719 142.460938 3.070312 C 148.402344 6.53125 151.636719 13.257812 150.636719 20.058594 Z M 150.636719 20.058594 " clip-rule="nonzero"/></clipPath><clipPath id="2a95cdadba"><rect x="0" width="151" y="0" height="186"/></clipPath></defs><g clip-path="url(#c724fef0e6)"><g clip-path="url(#a5338780af)"><g clip-path="url(#27b2ff9544)"><g transform="matrix(1, 0, 0, 1, 747, 52)"><g clip-path="url(#aee83356a6)"><g clip-path="url(#53e1f1c09b)"><g clip-path="url(#a550652169)"><g clip-path="url(#8536101fe5)"><path fill="#ffffff" d="M 122.554688 -69.644531 L 375.324219 70.121094 L 253.203125 290.96875 L 0.4375 151.199219 Z M 122.554688 -69.644531 " fill-opacity="1" fill-rule="nonzero"/></g></g></g></g></g></g></g></g><g clip-path="url(#a2ed1499e1)"><g clip-path="url(#3eebe3892b)"><g transform="matrix(1, 0, 0, 1, 610, 307)"><g clip-path="url(#b60da82a69)"><g clip-path="url(#be5fd8a1d6)"><g clip-path="url(#c7cd1fddc8)"><path fill="#ffffff" d="M 0.179688 125.539062 L 325.867188 0.0429688 L 383.03125 148.398438 L 57.34375 273.894531 Z M 0.179688 125.539062 " fill-opacity="1" fill-rule="nonzero"/></g></g></g></g></g></g><g clip-path="url(#2d71e503a8)"><g clip-path="url(#8e51e085a7)"><g clip-path="url(#f450e9ef5e)"><g transform="matrix(1, 0, 0, 1, 448, 52)"><g clip-path="url(#4676311f57)"><g clip-path="url(#f95baa85e8)"><g clip-path="url(#d11c920580)"><g clip-path="url(#91c0727e53)"><path fill="#ffffff" d="M -123.648438 73.761719 L 124.714844 -73.6875 L 253.542969 143.3125 L 5.179688 290.765625 Z M -123.648438 73.761719 " fill-opacity="1" fill-rule="nonzero"/></g></g></g></g></g></g></g></g><g clip-path="url(#4ccd46f58e)"><g clip-path="url(#17bc5e2f5e)"><g transform="matrix(1, 0, 0, 1, 357, 210)"><g clip-path="url(#bfb81036a2)"><g clip-path="url(#25fa08fa14)"><g clip-path="url(#e626b21822)"><path fill="#1fff93" d="M 0.671875 0.320312 L 723.042969 0.320312 L 723.042969 516.875 L 0.671875 516.875 Z M 0.671875 0.320312 " fill-opacity="1" fill-rule="nonzero"/></g></g></g></g></g></g><g clip-path="url(#f97a05515a)"><g clip-path="url(#e81d6206fa)"><g clip-path="url(#571c409b00)"><g transform="matrix(1, 0, 0, 1, 428, 40)"><g clip-path="url(#d968a30836)"><g clip-path="url(#3aa184e644)"><g clip-path="url(#3680efbad7)"><g clip-path="url(#3526eefa1d)"><path fill="#1fff93" d="M -194.355469 100.785156 L 210.191406 -122.3125 L 405.117188 231.148438 L 0.570312 454.246094 Z M -194.355469 100.785156 " fill-opacity="1" fill-rule="nonzero"/></g></g></g></g></g></g></g></g><g clip-path="url(#c30377d59d)"><g clip-path="url(#991a67b7ca)"><g clip-path="url(#5ab39a6e7e)"><g transform="matrix(1, 0, 0, 1, 629, 41)"><g clip-path="url(#f3a3ea4352)"><g clip-path="url(#408c529fcf)"><g clip-path="url(#f36cda2d88)"><g clip-path="url(#7eee2075ce)"><path fill="#1fff93" d="M 172.039062 -117.519531 L 575.847656 95.273438 L 389.925781 448.089844 L -13.882812 235.296875 Z M 172.039062 -117.519531 " fill-opacity="1" fill-rule="nonzero"/></g></g></g></g></g></g></g></g><g clip-path="url(#85d95d7298)"><g clip-path="url(#29befb8dee)"><g clip-path="url(#e14e7b342c)"><g transform="matrix(1, 0, 0, 1, 355, 177)"><g clip-path="url(#e948578b62)"><g clip-path="url(#47e78996e1)"><g clip-path="url(#da8ed95e38)"><g clip-path="url(#6e3f9275b7)"><path fill="#1fff93" d="M -28.40625 16.789062 L 286.117188 -16.796875 L 315.460938 258.011719 L 0.9375 291.597656 Z M -28.40625 16.789062 " fill-opacity="1" fill-rule="nonzero"/></g></g></g></g></g></g></g></g><g clip-path="url(#9cdb69db71)"><g clip-path="url(#67157b6c7c)"><g clip-path="url(#03747ce7c8)"><g transform="matrix(1, 0, 0, 1, 767, 177)"><g clip-path="url(#1352d05296)"><g clip-path="url(#f10375387d)"><g clip-path="url(#fda85b917f)"><g clip-path="url(#17c08c61d9)"><path fill="#1fff93" d="M 33.253906 -18.695312 L 347.285156 19.226562 L 314.152344 293.601562 L 0.121094 255.679688 Z M 33.253906 -18.695312 " fill-opacity="1" fill-rule="nonzero"/></g></g></g></g></g></g></g></g><g clip-path="url(#6b2e442dac)"><g transform="matrix(1, 0, 0, 1, 517, 150)"><g clip-path="url(#a3cb9a7acc)"><g clip-path="url(#e1a3fdb2ca)"><path fill="#1fff93" d="M 0.355469 0.113281 L 404.160156 0.113281 L 404.160156 110.199219 L 0.355469 110.199219 Z M 0.355469 0.113281 " fill-opacity="1" fill-rule="nonzero"/></g></g></g></g><g clip-path="url(#0a5febf964)"><g clip-path="url(#23cd9336b9)"><g clip-path="url(#a5e76a67e6)"><g transform="matrix(1, 0, 0, 1, 902, 395)"><g clip-path="url(#30a4937207)"><g clip-path="url(#e0549c4b1a)"><g clip-path="url(#9edf01624f)"><g clip-path="url(#ab7edb1bfe)"><path fill="#ffffff" d="M 54.933594 3.007812 L 49.78125 54.511719 L -1.726562 49.359375 L 3.429688 -2.148438 Z M 54.933594 3.007812 " fill-opacity="1" fill-rule="nonzero"/></g></g></g></g></g></g></g></g><g clip-path="url(#a9acca1c73)"><g clip-path="url(#93a51d96a0)"><g clip-path="url(#695818bf55)"><g transform="matrix(1, 0, 0, 1, 883, 370)"><g clip-path="url(#17a7a5fbea)"><g clip-path="url(#a396656796)"><g clip-path="url(#e4cb93e822)"><g clip-path="url(#5ea7f50ba3)"><path fill="#ffffff" d="M 52.515625 3.050781 L 47.675781 52.234375 L -1.507812 47.394531 L 3.332031 -1.789062 Z M 52.515625 3.050781 " fill-opacity="1" fill-rule="nonzero"/></g></g></g></g></g></g></g></g><g clip-path="url(#0c5056e49f)"><g clip-path="url(#070ba9c68f)"><g clip-path="url(#60c8693830)"><g transform="matrix(1, 0, 0, 1, 864, 347)"><g clip-path="url(#f94bfca962)"><g clip-path="url(#f49a4bf3bf)"><g clip-path="url(#f6b1bb38e7)"><g clip-path="url(#01bd44c7b1)"><path fill="#ffffff" d="M 52.6875 3.070312 L 47.039062 52.167969 L -2.058594 46.519531 L 3.589844 -2.578125 Z M 52.6875 3.070312 " fill-opacity="1" fill-rule="nonzero"/></g></g></g></g></g></g></g></g><g clip-path="url(#8e6018af82)"><g clip-path="url(#0a7d8d5034)"><g clip-path="url(#8322e874e8)"><g transform="matrix(1, 0, 0, 1, 793, 395)"><g clip-path="url(#38384ef4f3)"><g clip-path="url(#4b8a757b14)"><g clip-path="url(#bf69ebd8e7)"><g clip-path="url(#27598ea37e)"><path fill="#ffffff" d="M 48.875 -1.070312 L 52.835938 50.257812 L 2.492188 54.140625 L -1.46875 2.8125 Z M 48.875 -1.070312 " fill-opacity="1" fill-rule="nonzero"/></g></g></g></g></g></g></g></g><g clip-path="url(#69779a5599)"><g clip-path="url(#7ac7ffbb75)"><g clip-path="url(#4b7ab1ecbe)"><g transform="matrix(1, 0, 0, 1, 816, 367)"><g clip-path="url(#104a8a8ce7)"><g clip-path="url(#d3809c01d7)"><g clip-path="url(#93d5adaabe)"><g clip-path="url(#234cb7e70a)"><path fill="#ffffff" d="M 48.574219 -1.386719 L 52.648438 51.425781 L 2.199219 55.320312 L -1.875 2.503906 Z M 48.574219 -1.386719 " fill-opacity="1" fill-rule="nonzero"/></g></g></g></g></g></g></g></g><g clip-path="url(#f3947314ca)"><g clip-path="url(#63cc10baed)"><g clip-path="url(#6cda6509a6)"><g transform="matrix(1, 0, 0, 1, 839, 338)"><g clip-path="url(#cefed1c28e)"><g clip-path="url(#8ee7d73f16)"><g clip-path="url(#b79442b4b1)"><g clip-path="url(#803629c652)"><path fill="#ffffff" d="M 48.644531 -1.859375 L 52.792969 51.941406 L 2.34375 55.832031 L -1.804688 2.035156 Z M 48.644531 -1.859375 " fill-opacity="1" fill-rule="nonzero"/></g></g></g></g></g></g></g></g><g clip-path="url(#b09e96c9f1)"><g clip-path="url(#3319f16e10)"><g clip-path="url(#74cf928d6e)"><g transform="matrix(1, 0, 0, 1, 861, 337)"><g clip-path="url(#16b2b6c421)"><g clip-path="url(#ab1916ce90)"><g clip-path="url(#a7b2c1963c)"><g clip-path="url(#7e6028a5d8)"><path fill="#ffffff" d="M 42.289062 13.523438 L 20.59375 39.886719 L -10.40625 14.378906 L 11.289062 -11.984375 Z M 42.289062 13.523438 " fill-opacity="1" fill-rule="nonzero"/></g></g></g></g></g></g></g></g><g clip-path="url(#3848eb7a61)"><g clip-path="url(#0798ddc09a)"><g clip-path="url(#bae141a4bb)"><g transform="matrix(1, 0, 0, 1, 868, 337)"><g clip-path="url(#56ef67eae4)"><g clip-path="url(#821eebdfe6)"><g clip-path="url(#b53c513900)"><g clip-path="url(#7449cf9951)"><path fill="#ffffff" d="M 32.742188 42.339844 L -1.207031 38.738281 L 3.027344 -1.183594 L 36.980469 2.417969 Z M 32.742188 42.339844 " fill-opacity="1" fill-rule="nonzero"/></g></g></g></g></g></g></g></g><g clip-path="url(#6a74bbf270)"><g clip-path="url(#08ad5ec468)"><g clip-path="url(#7ae0b9a99e)"><g transform="matrix(1, 0, 0, 1, 826, 355)"><g clip-path="url(#07026b90f8)"><g clip-path="url(#4eff2ae4ca)"><g clip-path="url(#96d2c2acec)"><g clip-path="url(#f40a02c587)"><path fill="#ffffff" d="M 47.25 -2.035156 L 52.433594 49.921875 L 2.800781 54.875 L -2.382812 2.917969 Z M 47.25 -2.035156 " fill-opacity="1" fill-rule="nonzero"/></g></g></g></g></g></g></g></g><g clip-path="url(#f77f45a8eb)"><g clip-path="url(#0bd98252f7)"><g clip-path="url(#ba7ed56c91)"><g transform="matrix(1, 0, 0, 1, 882, 370)"><g clip-path="url(#b3176b39e8)"><g clip-path="url(#5c101d0de1)"><g clip-path="url(#28e89dfff7)"><g clip-path="url(#569095b9fc)"><path fill="#ffffff" d="M 54.835938 3.363281 L 49.679688 54.871094 L -1.824219 49.714844 L 3.328125 -1.789062 Z M 54.835938 3.363281 " fill-opacity="1" fill-rule="nonzero"/></g></g></g></g></g></g></g></g><g clip-path="url(#3f61a3efdf)"><g clip-path="url(#9af9d83020)"><g clip-path="url(#c24b607c48)"><g transform="matrix(1, 0, 0, 1, 873, 359)"><g clip-path="url(#688f5ba7c9)"><g clip-path="url(#19d7d76041)"><g clip-path="url(#7f99f8f519)"><g clip-path="url(#294500db5a)"><path fill="#ffffff" d="M 54.808594 3.144531 L 48.535156 54.527344 L -2.84375 48.253906 L 3.425781 -3.125 Z M 54.808594 3.144531 " fill-opacity="1" fill-rule="nonzero"/></g></g></g></g></g></g></g></g><g clip-path="url(#7a7dcad4c6)"><g clip-path="url(#879ae4a83d)"><g transform="matrix(1, 0, 0, 1, 665, 470)"><g clip-path="url(#b0ecad4182)"><g clip-path="url(#416b2e576b)"><g clip-path="url(#65168a15d0)"><path fill="#ffffff" d="M 0.722656 0.546875 L 107.902344 0.546875 L 107.902344 29.984375 L 0.722656 29.984375 Z M 0.722656 0.546875 " fill-opacity="1" fill-rule="nonzero"/></g></g></g></g></g></g><g clip-path="url(#de0ae93db3)"><g clip-path="url(#31ba1cfabc)"><g transform="matrix(1, 0, 0, 1, 701, 497)"><g clip-path="url(#a4637d5ee2)"><g clip-path="url(#1529b10ae8)"><g clip-path="url(#d1a95cb7cf)"><path fill="#ffffff" d="M 36.136719 38.070312 L 0.0625 38.070312 L 0.0625 -0.449219 L 36.136719 -0.449219 Z M 36.136719 38.070312 " fill-opacity="1" fill-rule="nonzero"/></g></g></g></g></g></g><g clip-path="url(#b578db9982)"><g clip-path="url(#b2650c7a72)"><g clip-path="url(#3458f33b88)"><g transform="matrix(1, 0, 0, 1, 716, 484)"><g clip-path="url(#31d5c95b29)"><g clip-path="url(#695cac7ffc)"><g clip-path="url(#f7bfbaafb3)"><g clip-path="url(#4b2b5e7905)"><path fill="#ffffff" d="M 44.941406 -9.695312 L 56.347656 39.390625 L 11.46875 49.820312 L 0.0625 0.734375 Z M 44.941406 -9.695312 " fill-opacity="1" fill-rule="nonzero"/></g></g></g></g></g></g></g></g><g clip-path="url(#49f0f4cde3)"><g clip-path="url(#19b388075a)"><g clip-path="url(#e50932c12e)"><g transform="matrix(1, 0, 0, 1, 671, 485)"><g clip-path="url(#8a09493209)"><g clip-path="url(#68c4817f19)"><g clip-path="url(#0a9cb85f40)"><g clip-path="url(#cd45596759)"><path fill="#ffffff" d="M -5.570312 38.1875 L 6.707031 -10.6875 L 51.394531 0.539062 L 39.117188 49.414062 Z M -5.570312 38.1875 " fill-opacity="1" fill-rule="nonzero"/></g></g></g></g></g></g></g></g><g clip-path="url(#0156611632)"><g clip-path="url(#8de5b8e9e4)"><g clip-path="url(#1f615c9d80)"><g transform="matrix(1, 0, 0, 1, 451, 74)"><g clip-path="url(#a5f00112ed)"><g clip-path="url(#30ed5e383e)"><g clip-path="url(#5f1eb1ca2d)"><g clip-path="url(#87e6719af0)"><path fill="#ffffff" d="M -77.910156 21.113281 L 67.476562 -63.996094 L 173.863281 117.738281 L 28.476562 202.847656 Z M -77.910156 21.113281 " fill-opacity="1" fill-rule="nonzero"/></g></g></g></g></g></g></g></g><g clip-path="url(#277ab3702e)"><g clip-path="url(#46adf204bb)"><g clip-path="url(#6acdca1e96)"><g transform="matrix(1, 0, 0, 1, 833, 74)"><g clip-path="url(#2a95cdadba)"><g clip-path="url(#f88101458c)"><g clip-path="url(#6c0bf2bcb9)"><g clip-path="url(#243d24db1a)"><path fill="#ffffff" d="M 83.972656 -63.878906 L 229.554688 20.898438 L 123.585938 202.875 L -21.996094 118.097656 Z M 83.972656 -63.878906 " fill-opacity="1" fill-rule="nonzero"/></g></g></g></g></g></g></g></g><path stroke-linecap="butt" transform="matrix(0.630533, -0.406114, 0.406114, 0.630533, 813.273901, 149.567897)" fill="none" stroke-linejoin="miter" d="M -0.000356194 2.50025 L 272.988154 2.502003 " stroke="#000000" stroke-width="5" stroke-opacity="1" stroke-miterlimit="4"/><path stroke-linecap="butt" transform="matrix(0.75, 0, 0, 0.75, 635.494654, 149.270021)" fill="none" stroke-linejoin="miter" d="M 0.00191933 2.499347 L 238.392556 2.499347 " stroke="#000000" stroke-width="5" stroke-opacity="1" stroke-miterlimit="4"/><path stroke-linecap="butt" transform="matrix(-0.0254369, -0.749568, 0.749568, -0.0254369, 1010.734299, 302.776997)" fill="none" stroke-linejoin="miter" d="M -0.00196993 2.501473 L 341.600926 2.498669 " stroke="#000000" stroke-width="5" stroke-opacity="1" stroke-miterlimit="4"/><path stroke-linecap="butt" transform="matrix(-0.288462, -0.692308, 0.692308, -0.288462, 1079.850888, 468.9791)" fill="none" stroke-linejoin="miter" d="M -0.0000268952 2.500529 L 239.122579 2.502135 " stroke="#000000" stroke-width="5" stroke-opacity="1" stroke-miterlimit="4"/><path stroke-linecap="butt" transform="matrix(0.609555, -0.43697, 0.43697, 0.609555, 718.906602, 725.946967)" fill="none" stroke-linejoin="miter" d="M -0.000345317 2.502708 L 593.200747 2.496577 " stroke="#000000" stroke-width="5" stroke-opacity="1" stroke-miterlimit="4"/><path stroke-linecap="butt" transform="matrix(0.610474, 0.435685, -0.435685, 0.610474, 357.886745, 466.739229)" fill="none" stroke-linejoin="miter" d="M -0.000548168 2.500739 L 594.951326 2.499258 " stroke="#000000" stroke-width="5" stroke-opacity="1" stroke-miterlimit="4"/><path stroke-linecap="butt" transform="matrix(0.298682, -0.68796, 0.68796, 0.298682, 355.078524, 467.515916)" fill="none" stroke-linejoin="miter" d="M 0.000281974 2.497626 L 252.422622 2.498322 " stroke="#000000" stroke-width="5" stroke-opacity="1" stroke-miterlimit="4"/><path stroke-linecap="butt" transform="matrix(0.0142738, -0.749864, 0.749864, 0.0142738, 430.313769, 294.566782)" fill="none" stroke-linejoin="miter" d="M 0.00118144 2.498739 L 330.649605 2.497604 " stroke="#000000" stroke-width="5" stroke-opacity="1" stroke-miterlimit="4"/><path stroke-linecap="butt" transform="matrix(-0.63998, -0.391058, 0.391058, -0.63998, 636.457126, 152.742185)" fill="none" stroke-linejoin="miter" d="M 0.00245878 2.501015 L 283.500681 2.499663 " stroke="#000000" stroke-width="5" stroke-opacity="1" stroke-miterlimit="4"/><path stroke-linecap="butt" transform="matrix(-0.691631, 0.290081, -0.290081, -0.691631, 457.692847, 41.089991)" fill="none" stroke-linejoin="miter" d="M 1.657583 1.870188 C 10.864077 10.029575 20.068824 10.032684 29.275851 1.869911 " stroke="#000000" stroke-width="5" stroke-opacity="1" stroke-miterlimit="4"/><path stroke-linecap="butt" transform="matrix(-0.690332, -0.293159, 0.293159, -0.690332, 1004.682604, 50.598821)" fill="none" stroke-linejoin="miter" d="M 1.659171 1.871721 C 10.862675 10.032929 20.06922 10.033272 29.271976 1.86999 " stroke="#000000" stroke-width="5" stroke-opacity="1" stroke-miterlimit="4"/></svg>